<svg width="360" height="160" viewBox="0 0 360 160" fill="none" xmlns="http://www.w3.org/2000/svg">
<g clip-path="url(#clip0_1_7)">
<path d="M34.5854 125.585C29.1748 127.143 26.4872 127.993 21.0766 129.692C15.2416 111.458 12.3065 102.323 6.50687 84.0894C11.7053 82.4253 14.3222 81.6109 19.5206 80.0885C28.609 77.433 33.5953 80.0177 35.4342 86.9218C36 88.9754 36.2475 90.0376 36.8133 92.0911C37.6974 95.4193 35.1159 99.5618 35.1159 99.5618C35.1866 99.7388 40.2436 102.146 41.1277 105.475C41.8703 108.236 42.224 109.617 42.9666 112.343C44.8409 119.389 41.5874 123.567 34.5854 125.585ZM25.1434 90.1084C24.6483 88.4089 23.446 87.7716 21.9253 88.1965C20.9705 88.4797 20.4754 88.6213 19.5206 88.9046C20.7937 93.2241 21.4302 95.3485 22.7387 99.668C23.4813 99.4556 23.8703 99.314 24.613 99.1015C26.4872 98.535 27.2652 97.402 26.7348 95.5609C26.0982 93.4011 25.7799 92.3036 25.1434 90.1084ZM30.9784 107.741C30.4479 105.899 29.1748 105.191 27.4067 105.722C26.3458 106.041 25.8153 106.218 24.7544 106.501C26.2043 111.352 26.9116 113.76 28.3615 118.61C29.387 118.292 29.8821 118.15 30.9076 117.867C32.6405 117.371 33.3477 116.096 32.8173 114.255C32.11 111.671 31.721 110.361 30.9784 107.741Z" fill="#D89400"/>
<path d="M67.5796 117.159C66.2358 113.441 65.5285 111.565 64.1493 107.847C61.886 108.343 60.7544 108.626 58.4558 109.157C58.8448 113.122 59.0216 115.105 59.446 119.035C55.5913 119.956 53.6817 120.416 49.8625 121.407C47.776 102.147 46.8566 92.5161 45.3006 73.1844C51.3124 71.6973 54.3536 71.0246 60.4008 69.7146C67.3674 87.8071 70.7623 96.9065 77.2338 115.141C73.3792 115.92 71.4342 116.309 67.5796 117.159ZM57.7132 88.9755C56.5462 85.6827 55.2023 81.3278 55.2023 81.3278C55.1316 81.3278 55.0963 81.3632 55.0255 81.3632C55.0255 81.3632 55.7328 85.8952 56.0864 89.3296C56.6169 94.0032 56.8998 96.34 57.4656 101.014C59.0923 100.624 59.9057 100.447 61.497 100.093C60.0118 95.6318 59.2338 93.4013 57.7132 88.9755Z" fill="#D89400"/>
<path d="M97.2141 111.529C96.1532 104.873 95.6228 101.545 94.5619 94.9236C94.279 93.2595 93.2181 92.5514 91.945 92.7638C90.9194 92.9409 90.389 93.0117 89.3634 93.1887C90.6719 100.836 91.3084 104.66 92.6169 112.308C88.6562 112.981 86.6758 113.335 82.6797 114.078C79.108 95.2422 77.3045 85.8596 73.7328 67.0236C79.0373 65.9968 81.7249 65.5366 87.0648 64.6514C96.33 63.1289 100.963 66.3155 101.953 73.3613C102.306 75.8043 102.448 77.0435 102.802 79.4865C103.297 82.9209 99.6188 87.3113 99.6188 87.3113C99.6188 87.4529 104.358 90.4624 104.853 93.8968C105.772 100.341 106.232 103.598 107.116 110.042C103.155 110.573 101.175 110.892 97.2141 111.529ZM91.7328 77.2206C91.5913 76.4416 91.556 76.0522 91.4145 75.2732C91.1316 73.5383 90 72.7594 88.444 73.0072C87.4538 73.1843 86.9587 73.2551 86.0039 73.4321C86.7819 77.9287 87.1709 80.1593 87.9135 84.6558C88.9744 84.4788 89.5049 84.3726 90.5658 84.1956C91.8389 83.9831 92.6522 82.9563 92.4047 81.2922C92.0864 79.6282 91.9803 78.8138 91.7328 77.2206Z" fill="#D89400"/>
<path d="M128.688 107.422C123.136 107.989 120.342 108.272 114.79 108.98C112.385 89.9668 111.183 80.478 108.813 61.4649C114.189 60.7922 116.841 60.4736 122.216 59.9425C131.552 58.9865 135.937 62.4563 136.503 69.5729C136.68 71.6973 136.75 72.7949 136.927 74.9192C137.21 78.3536 133.921 81.9296 133.921 81.9296C133.957 82.1067 138.448 85.3994 138.731 88.8338C138.943 91.6663 139.049 93.0826 139.261 95.9505C139.827 103.209 135.866 106.714 128.688 107.422ZM125.859 70.8121C125.682 69.0418 124.621 68.1921 123.065 68.3691C122.075 68.4753 121.58 68.5107 120.589 68.617C121.049 73.0781 121.297 75.3087 121.792 79.8053C122.57 79.7345 122.959 79.6991 123.737 79.5928C125.682 79.3804 126.637 78.4244 126.46 76.5125C126.212 74.2111 126.106 73.0781 125.859 70.8121ZM128.405 89.2233C128.228 87.3114 127.096 86.3908 125.257 86.5678C124.196 86.6741 123.631 86.7449 122.57 86.8511C123.1 91.8788 123.348 94.3926 123.914 99.4202C124.974 99.314 125.505 99.2432 126.566 99.137C128.369 98.96 129.253 97.827 129.077 95.915C128.794 93.2596 128.652 91.9142 128.405 89.2233Z" fill="#D89400"/>
<path d="M146.794 105.935C145.591 86.8155 144.955 77.2559 143.752 58.1366C152.381 57.5701 156.695 57.3931 165.324 57.1807C165.43 60.6505 165.466 62.3854 165.536 65.8552C161.363 65.9614 159.242 66.0322 155.069 66.2092C155.246 70.3163 155.352 72.3699 155.528 76.477C159.136 76.2999 160.974 76.2645 164.582 76.1583C164.688 79.5573 164.723 81.2568 164.829 84.6912C161.222 84.7974 159.418 84.8682 155.847 85.0098C156.059 89.7188 156.165 92.0556 156.377 96.7646C160.373 96.5876 162.354 96.5168 166.35 96.4106C166.42 99.8804 166.491 101.615 166.562 105.085C158.64 105.262 154.68 105.439 146.794 105.935Z" fill="#D89400"/>
<path d="M187.638 104.944C187.745 98.2164 187.78 94.8528 187.886 88.1257C187.921 86.4262 186.967 85.541 185.693 85.541C184.633 85.541 184.138 85.541 183.077 85.5056C183.041 93.2595 183.006 97.1542 182.971 104.908C178.939 104.873 176.923 104.908 172.927 104.944C172.68 85.7889 172.538 76.1938 172.291 57.0391C177.666 56.9683 180.389 56.9683 185.764 57.0037C195.136 57.1099 199.132 61.04 198.884 68.1566C198.813 70.6351 198.743 71.8389 198.672 74.3173C198.566 77.7871 194.181 81.4693 194.181 81.4693C194.181 81.6109 198.283 85.3994 198.177 88.8692C197.965 95.3839 197.859 98.6413 197.611 105.156C193.615 105.05 191.635 105.014 187.638 104.944ZM188.134 70.2102C188.134 69.4313 188.134 69.0418 188.169 68.2274C188.204 66.4571 187.214 65.5012 185.658 65.4658C184.668 65.4658 184.173 65.4658 183.183 65.4304C183.147 69.9977 183.147 72.2637 183.112 76.8311C184.173 76.8311 184.703 76.8311 185.764 76.8665C187.073 76.8665 188.027 76.0168 188.063 74.3173C188.098 72.6886 188.134 71.8389 188.134 70.2102Z" fill="#D89400"/>
<path d="M231.878 108.059C224.416 107.316 219.536 102.855 220.031 95.9504C220.173 93.8968 220.279 92.87 220.42 90.8165C224.558 91.1351 226.609 91.3122 230.747 91.7016C230.57 93.7198 230.464 94.7111 230.251 96.7293C230.075 98.4996 231.242 99.5618 232.692 99.7034C234.566 99.8804 235.768 98.8537 236.016 96.3752C236.228 94.3217 235.733 92.4452 234.424 90.9581C231.312 87.4175 229.721 85.6826 226.503 82.1774C223.709 79.1325 222.153 75.8397 222.613 70.0685C223.214 62.3146 228.059 58.3491 236.723 59.2343C244.892 60.0486 249.136 64.7576 248.322 71.6264C248.075 73.6799 247.933 74.6713 247.686 76.7249C243.654 76.2292 241.603 75.9813 237.572 75.5565C237.784 73.5383 237.89 72.5469 238.102 70.5288C238.279 69.0063 237.572 67.7317 235.91 67.5901C234.177 67.4131 233.116 68.9355 232.904 71.2015C232.727 73.2551 233.187 74.99 234.318 76.1938C237.536 79.7344 239.128 81.5047 242.24 85.0807C244.963 88.1964 246.519 91.5954 245.811 97.3312C244.857 104.943 239.906 108.874 231.878 108.059Z" fill="#D89400"/>
<path d="M265.827 112.025C267.171 104.023 267.807 100.022 269.151 92.0204C267.171 91.7017 266.181 91.5247 264.165 91.206C262.927 99.2078 262.291 103.209 261.018 111.246C257.022 110.609 255.006 110.325 250.974 109.759C253.591 90.7812 254.864 81.2923 257.481 62.3147C261.866 62.9166 264.059 63.2353 268.444 63.9434C267.242 71.5557 266.64 75.3441 265.438 82.9564C267.454 83.2751 268.479 83.4521 270.495 83.7708C271.768 76.1939 272.405 72.37 273.678 64.7931C278.063 65.5366 280.255 65.8907 284.605 66.7405C281.104 85.5765 279.336 94.9945 275.8 113.831C271.839 113.052 269.823 112.662 265.827 112.025Z" fill="#D89400"/>
<path d="M295.249 118.398C287.894 116.734 283.792 111.741 285.136 104.979C287.257 94.3924 288.354 89.0815 290.475 78.4951C291.819 71.7326 298.008 68.7584 306.071 70.5642C314.134 72.4053 318.448 77.7516 316.75 84.4433C314.098 94.9235 312.79 100.164 310.138 110.644C308.475 117.336 302.605 120.062 295.249 118.398ZM306.071 82.1419C306.46 80.5133 305.434 79.274 304.161 78.9908C302.888 78.7076 301.438 79.3449 301.084 81.0089C298.786 91.3475 297.654 96.5168 295.356 106.82C295.002 108.484 295.921 109.652 297.159 109.936C298.361 110.219 299.741 109.546 300.13 107.918C302.499 97.6144 303.701 92.4451 306.071 82.1419Z" fill="#D89400"/>
<path d="M332.77 109.83C331.391 109.405 330.684 109.228 329.305 108.838C327.395 115.459 326.44 118.752 324.53 125.337C320.64 124.204 318.66 123.673 314.77 122.611C319.721 104.094 322.196 94.8528 327.147 76.3354C332.487 77.7517 335.175 78.5306 340.479 80.0885C349.568 82.744 352.361 87.6654 350.204 94.4279C349.073 97.9686 348.507 99.7743 347.375 103.315C345.324 109.723 339.807 111.919 332.77 109.83ZM339.807 91.5601C340.303 89.8606 339.631 88.6568 338.11 88.2319C337.049 87.9132 336.519 87.7716 335.458 87.453C333.937 92.6931 333.195 95.2777 331.709 100.518C332.593 100.766 333.018 100.907 333.902 101.155C335.705 101.686 336.943 101.12 337.509 99.314C338.393 96.1982 338.888 94.6404 339.807 91.5601Z" fill="#D89400"/>
<path d="M3.2888 73.9986C124.585 41.0002 238.88 39.1236 356.747 73.9986C360 74.9546 361.45 70.5996 358.126 69.6437C239.729 34.2376 120.271 34.2376 1.87426 69.6437C-1.41454 70.5996 -0.035368 75.0608 3.2888 73.9986Z" fill="#D89400"/>
<path d="M26.0275 145.165C131.693 116.415 231.312 114.787 334.008 145.165C336.837 146.015 338.287 141.624 335.422 140.81C231.807 110.148 128.299 110.148 24.6483 140.81C21.7485 141.624 23.1277 146.085 26.0275 145.165Z" fill="#D89400"/>
<path d="M90.9194 24.7842C92.4047 22.6953 90.778 20.0398 87.3477 20.0398C83.5992 20.0398 80.5933 21.6685 77.6228 20.0398C75.9961 22.1642 77.8703 25.634 81.3359 25.634C83.1041 25.634 84.7662 24.9967 86.4283 24.6072C86.0039 30.8033 82.7505 33.9898 79.9214 33.9898C74.8998 33.9898 72.9195 29.1392 72.9195 23.2618C72.9195 13.1357 77.4106 3.85926 81.7249 3.85926C84.9784 3.85926 84.7308 8.42664 82.22 9.9137C82.7505 11.2945 84.3065 11.8964 85.0845 11.8964C90.3183 11.8964 91.8743 0 82.3969 0C73.3438 0 65.9175 11.4716 65.9175 24.1115C65.9175 31.7592 69.3477 38.5926 77.0923 38.5926C82.7858 38.5926 88.6208 34.4147 89.4342 24.2177C90.1768 24.2532 90.6365 24.501 90.9194 24.7842Z" fill="#D89400"/>
<path d="M263.493 31.4406C262.751 33.2109 261.619 33.8128 260.699 33.8128C259.709 33.8128 259.073 32.7153 259.603 30.2014L261.69 20.4294C262.786 15.2247 260.947 13.1357 258.33 13.1357C255.466 13.1357 252.283 15.1184 250.196 18.0926L250.692 15.862C251.151 13.9854 250.09 13.1357 248.322 13.1357C246.236 13.1357 244.468 14.1625 242.77 15.5079C241.78 16.2868 242.134 17.8447 242.77 18.2342C243.23 17.8447 243.513 17.6323 243.76 17.6323C244.22 17.6323 244.468 18.0926 244.255 18.8715L242.098 28.9268C239.941 31.7593 235.415 34.2377 231.878 34.2377C229.615 34.2377 227.776 33.2463 227.281 30.5555C236.829 25.2446 239.057 21.881 239.057 17.6677C239.057 15.4371 237.925 12.9233 233.399 12.9233C225.23 12.9233 220.951 23.2264 220.951 29.6703C220.951 30.3785 221.022 31.0512 221.128 31.6885C219.855 32.7861 217.98 33.8128 216.318 33.8128C215.328 33.8128 214.692 33.2109 214.974 31.7947L217.415 20.3939C218.688 14.5874 215.47 13.1003 213.242 13.1003C210.377 13.1003 207.902 15.2247 205.815 18.1988C205.957 14.6936 203.694 13.1003 201.642 13.1003C198.813 13.1003 196.338 15.1184 194.322 18.0571L194.817 15.8266C195.277 13.95 194.216 13.1003 192.448 13.1003C190.361 13.1003 188.593 14.1271 186.896 15.4725C185.906 16.2514 186.259 17.8093 186.896 18.1988C187.356 17.8093 187.639 17.5969 187.886 17.5969C188.346 17.5969 188.593 18.0571 188.381 18.8361L186.224 28.8914C184.067 31.7239 179.54 34.2023 176.004 34.2023C173.741 34.2023 171.902 33.2109 171.407 30.5201C180.955 25.2092 183.183 21.8456 183.183 17.6323C183.183 15.4017 182.051 12.8879 177.525 12.8879C169.356 12.8879 165.077 23.191 165.077 29.6349C165.077 29.7057 165.077 29.7411 165.077 29.812C163.556 31.9717 160.409 33.7066 158.145 33.7066C156.413 33.7066 155.139 32.7153 155.458 30.1306C155.493 29.5287 155.599 28.8914 155.705 28.2895C162.106 18.5174 165.324 10.5865 165.324 6.7272C165.324 4.14256 163.697 2.72632 161.363 2.72632C154.892 2.72632 151.568 13.2419 149.269 31.1928C149.234 31.3698 149.269 31.5114 149.234 31.6531C147.961 32.7861 146.086 33.8128 144.424 33.8128C143.151 33.8128 142.338 32.9277 142.939 30.1306L145.874 16.1806H148.067C149.587 16.1806 150.401 14.906 150.153 13.3127H146.546L147.925 6.76261C147.324 6.37314 146.475 6.1253 145.591 6.1253C143.823 6.1253 141.914 6.97505 141.418 9.24103L140.534 13.3127H139.544C138.024 13.3127 137.21 14.5874 137.458 16.1806H139.933L136.75 31.1574C136.821 31.476 136.786 31.6531 136.75 31.8655C135.477 32.9277 133.709 33.8837 132.118 33.8837C131.128 33.8837 130.491 33.2818 130.774 31.8655L133.214 20.4648C134.346 15.2601 132.472 13.1711 129.855 13.1711C126.99 13.1711 123.807 15.1538 121.721 18.128L122.216 15.8974C122.676 14.0209 121.615 13.1711 119.847 13.1711C117.76 13.1711 115.992 14.1979 114.295 15.5433C113.305 16.3222 113.658 17.8801 114.295 18.2696C114.754 17.8801 115.037 17.6677 115.285 17.6677C115.745 17.6677 115.992 18.128 115.78 18.9069L113.623 28.9622C111.466 31.7947 106.939 34.2731 103.403 34.2731C101.139 34.2731 99.3006 33.2818 98.8055 30.5909C108.354 25.28 110.582 21.9164 110.582 17.7031C110.582 15.4725 109.45 12.9587 104.923 12.9587C96.7544 12.9587 92.4754 23.2618 92.4754 29.7057C92.4754 30.2014 92.5108 30.6617 92.5815 31.0866C91.556 31.5469 90.5658 31.7947 89.3988 31.6177C89.0452 33.565 90.8487 34.9812 92.7583 34.4856C92.9705 34.4501 93.1473 34.3439 93.3595 34.2377C94.7387 37.2118 97.6031 38.5573 100.892 38.5573C104.782 38.5573 109.308 36.5745 112.703 33.1401L111.678 37.9199C112.279 38.3094 113.128 38.5573 114.012 38.5573C115.78 38.5573 117.69 37.7075 118.185 35.4415L121.191 21.3145C122.287 19.9691 124.267 18.7299 125.611 18.7299C126.707 18.7299 127.379 19.5796 126.955 21.6686L124.868 31.5469C123.631 37.3534 126.248 38.5927 128.723 38.5927C131.552 38.5927 134.346 36.9286 136.574 34.8396C136.857 37.5659 138.483 38.5927 140.711 38.5927C143.717 38.5927 147.112 36.7161 149.446 34.3793C150.012 37.318 152.169 38.5927 154.821 38.5927C158.534 38.5927 163.096 36.2205 165.642 32.9277C166.739 36.787 169.886 38.5927 173.599 38.5927C177.489 38.5927 182.016 36.6099 185.411 33.1755L184.385 37.9554C184.986 38.3448 185.835 38.5927 186.719 38.5927C188.487 38.5927 190.397 37.7429 190.892 35.4769L193.898 21.3499C195.242 19.7566 196.656 18.7653 198.46 18.7653C200.086 18.7653 199.98 20.1107 199.662 21.704L196.196 37.9554C196.798 38.3448 197.646 38.5927 198.53 38.5927C200.299 38.5927 202.208 37.7429 202.703 35.4769L205.78 21.0313C207.053 19.6504 208.397 18.7653 210.094 18.7653C211.721 18.7653 211.686 20.1107 211.297 21.704L209.21 31.5823C207.972 37.3889 210.589 38.6281 213.065 38.6281C216.283 38.6281 219.536 36.4683 221.835 33.9191C223.143 37.1056 226.079 38.6281 229.509 38.6281C233.399 38.6281 237.925 36.6453 241.32 33.2109L240.295 37.9908C240.896 38.3802 241.745 38.6281 242.629 38.6281C244.397 38.6281 246.306 37.7783 246.802 35.5123L249.807 21.3853C250.904 20.0399 252.884 18.8007 254.228 18.8007C255.324 18.8007 255.996 19.6504 255.572 21.7394L253.485 31.6177C252.177 37.3535 255.678 38.5927 258.153 38.5927C260.947 38.5927 264.978 36.2559 264.978 32.7861C264.978 31.9363 264.448 31.4406 263.493 31.4406ZM161.823 6.05449C162.354 6.05449 162.672 6.30233 162.672 7.15208C162.672 8.85157 160.833 15.8974 156.483 23.97C158.145 13.4898 160.161 6.05449 161.823 6.05449ZM105.277 16.8179C106.126 16.8179 106.727 17.5969 106.727 18.7653C106.727 21.9872 103.473 25.457 98.664 28.5019C98.7701 24.9967 100.361 16.8179 105.277 16.8179ZM177.949 16.8179C178.798 16.8179 179.399 17.5969 179.399 18.7653C179.399 21.9872 176.145 25.457 171.336 28.5019C171.477 24.9967 173.033 16.8179 177.949 16.8179ZM233.788 16.8179C234.637 16.8179 235.238 17.5969 235.238 18.7653C235.238 21.9872 231.984 25.457 227.175 28.5019C227.316 24.9967 228.908 16.8179 233.788 16.8179Z" fill="#D89400"/>
<path d="M272.511 0.495605C270.566 0.495605 269.081 2.01807 269.081 3.82378C269.081 5.55867 270.212 6.40842 270.212 8.00169C270.212 8.99306 269.859 10.3739 268.338 12.1088C268.338 12.8877 268.833 13.3834 269.363 13.3834C272.228 12.1442 276.012 7.68304 276.012 4.00081C276.012 2.12428 274.526 0.495605 272.511 0.495605Z" fill="#D89400"/>
<path d="M290.582 21.81C292.42 21.9162 294.047 20.5354 294.047 17.7383C294.047 14.5164 292.031 12.9231 287.788 12.9231C282.059 12.9231 279.336 16.6053 279.336 20.5708C279.336 28.0061 287.505 27.5812 287.505 31.3343C287.505 33.7773 285.489 35.2997 283.58 35.2997C281.988 35.2997 280.468 34.3084 280.468 32.0424C280.468 30.8386 280.857 29.6702 281.493 28.9266C280.963 28.431 280.291 28.2185 279.513 28.2185C277.073 28.2185 275.658 29.9888 275.305 32.0424C274.774 35.3705 277.002 38.5925 282.271 38.5925C289.556 38.5925 292.42 35.0165 292.42 30.2013C292.42 23.899 284.287 25.032 284.287 19.7919C284.287 17.101 285.807 15.791 287.151 15.791C288.354 15.791 289.379 16.6407 289.379 18.4818C289.379 19.4732 289.026 20.5708 288.53 21.1727C289.238 21.5622 289.945 21.7746 290.582 21.81Z" fill="#D89400"/>
<path d="M130.88 139.96V143.111H120.342V148.351H129.819V151.326H120.342V156.636H131.234V159.788H117.018V139.996H130.88V139.96Z" fill="#D89400"/>
<path d="M141.489 142.58C140.534 142.58 139.721 142.793 139.084 143.182C138.448 143.572 138.165 144.174 138.165 144.988C138.165 145.802 138.483 146.404 139.084 146.829C139.721 147.254 141.029 147.714 143.045 148.21C145.061 148.706 146.582 149.378 147.642 150.263C148.668 151.149 149.198 152.459 149.198 154.194C149.198 155.928 148.562 157.309 147.253 158.407C145.945 159.469 144.248 160.036 142.126 160.036C139.014 160.036 136.291 158.973 133.886 156.849L135.972 154.335C137.988 156.07 140.039 156.955 142.196 156.955C143.257 156.955 144.106 156.707 144.743 156.247C145.379 155.787 145.697 155.185 145.697 154.406C145.697 153.627 145.415 153.061 144.813 152.636C144.212 152.211 143.187 151.821 141.737 151.467C140.287 151.113 139.191 150.795 138.413 150.511C137.67 150.228 136.998 149.839 136.397 149.378C135.23 148.493 134.629 147.148 134.629 145.307C134.629 143.465 135.301 142.049 136.609 141.058C137.953 140.066 139.58 139.571 141.56 139.571C142.833 139.571 144.071 139.783 145.308 140.208C146.546 140.633 147.642 141.199 148.527 141.978L146.758 144.492C146.157 143.961 145.379 143.536 144.389 143.182C143.434 142.757 142.444 142.58 141.489 142.58Z" fill="#D89400"/>
<path d="M160.798 143.041V159.788H157.473V143.041H151.462V139.996H166.809V143.041H160.798Z" fill="#D89400"/>
<path d="M168.507 159.363C168.083 158.938 167.906 158.442 167.906 157.876C167.906 157.274 168.118 156.778 168.507 156.389C168.896 155.964 169.391 155.787 169.992 155.787C170.593 155.787 171.088 155.999 171.477 156.389C171.902 156.778 172.114 157.274 172.114 157.876C172.114 158.478 171.902 158.973 171.477 159.363C171.053 159.788 170.558 160 169.992 160C169.391 160 168.896 159.788 168.507 159.363Z" fill="#D89400"/>
<path d="M182.511 139.96H189.69V159.752H186.507V142.934H182.475V139.96H182.511Z" fill="#D89400"/>
<path d="M200.016 156.991C201.784 156.991 203.057 156.389 203.906 155.22C204.754 154.016 205.179 152.423 205.179 150.405C204.719 150.936 204.012 151.432 203.128 151.892C202.244 152.352 201.253 152.6 200.193 152.6C198.424 152.6 196.939 151.998 195.737 150.83C194.534 149.662 193.933 148.068 193.933 146.121C193.933 144.174 194.57 142.58 195.878 141.412C197.187 140.208 198.813 139.642 200.758 139.642C203.941 139.642 206.098 141.058 207.336 143.89C208.008 145.519 208.361 147.36 208.361 149.378C208.361 151.432 208.149 153.131 207.725 154.477C207.301 155.822 206.699 156.92 205.957 157.699C204.472 159.257 202.668 160.036 200.546 160.036C198.424 160.036 196.479 159.363 194.747 158.017L196.409 155.539C196.833 155.928 197.434 156.247 198.141 156.566C198.778 156.849 199.45 156.991 200.016 156.991ZM200.617 149.626C201.749 149.626 202.703 149.307 203.481 148.67C204.259 148.033 204.613 147.219 204.613 146.192C204.613 145.165 204.259 144.315 203.517 143.572C202.774 142.828 201.855 142.474 200.758 142.474C199.662 142.474 198.743 142.793 198.035 143.465C197.328 144.103 196.974 144.953 196.974 145.979C196.974 147.006 197.293 147.856 197.965 148.564C198.566 149.272 199.485 149.626 200.617 149.626Z" fill="#D89400"/>
<path d="M214.232 141.093C215.505 140.102 217.061 139.606 218.971 139.606C220.88 139.606 222.471 140.102 223.709 141.093C224.982 142.085 225.619 143.359 225.619 144.882C225.619 146.404 224.912 147.75 223.497 148.918C225.407 150.122 226.361 151.821 226.361 154.016C226.361 155.716 225.69 157.132 224.31 158.301C222.967 159.469 221.163 160.036 218.971 160.036C216.778 160.036 214.974 159.469 213.631 158.301C212.287 157.132 211.58 155.716 211.58 154.016C211.58 151.821 212.534 150.122 214.444 148.918C213.029 147.75 212.322 146.404 212.322 144.882C212.322 143.324 212.959 142.085 214.232 141.093ZM216.212 156.282C217.096 156.849 218.016 157.132 218.971 157.132C219.961 157.132 220.88 156.849 221.729 156.282C222.613 155.716 223.037 154.937 223.037 153.875C223.037 152.848 222.613 152.034 221.8 151.467C220.986 150.901 220.031 150.617 218.971 150.617C217.91 150.617 216.955 150.901 216.141 151.467C215.293 152.034 214.904 152.848 214.904 153.875C214.904 154.902 215.363 155.716 216.212 156.282ZM216.495 147.254C217.202 147.82 218.051 148.104 219.006 148.104C219.961 148.104 220.809 147.82 221.517 147.254C222.224 146.687 222.578 145.979 222.578 145.13C222.578 144.28 222.224 143.572 221.517 143.005C220.809 142.439 219.961 142.155 219.006 142.155C218.051 142.155 217.202 142.439 216.495 143.005C215.788 143.572 215.434 144.28 215.434 145.13C215.434 145.979 215.788 146.687 216.495 147.254Z" fill="#D89400"/>
<path d="M241.745 139.925V142.97H233.399V147.856C234.212 147.395 235.167 147.183 236.228 147.183C238.067 147.183 239.658 147.75 241.002 148.847C242.346 149.945 243.018 151.467 243.018 153.379C243.018 155.291 242.31 156.884 240.931 158.124C239.552 159.363 237.819 160 235.768 160C233.116 160 230.994 159.115 229.403 157.345L231.171 154.902C231.312 155.043 231.525 155.22 231.772 155.433C232.02 155.645 232.55 155.928 233.328 156.282C234.106 156.636 234.99 156.813 235.945 156.813C236.9 156.813 237.749 156.53 238.526 155.964C239.304 155.397 239.694 154.583 239.694 153.485C239.694 152.388 239.269 151.573 238.456 150.971C237.642 150.37 236.582 150.086 235.344 150.086C234.106 150.086 232.904 150.405 231.772 151.007L230.358 149.484V139.96H241.745V139.925Z" fill="#D89400"/>
<path d="M74.8291 149.98L106.904 152.388V147.537L74.8291 149.98Z" fill="#D89400"/>
<path d="M285.171 149.98L253.096 152.388V147.537L285.171 149.98Z" fill="#D89400"/>
</g>
<defs>
<clipPath id="clip0_1_7">
<rect width="360" height="160" fill="white"/>
</clipPath>
</defs>
</svg>
